<?xml version="1.0"?>
<svg width="512" height="512" xmlns="http://www.w3.org/2000/svg" xmlns:svg="http://www.w3.org/2000/svg">
 <g class="layer">
  <title>Layer 1</title>
  <path d="m355.13,260.69l131.76,0.03l-0.1,21.66c0,4.49 -0.3,9.25 0.26,13.69l-55.73,0.26c7.58,2.91 16.38,15.89 19.1,23.04c0.58,1.53 0.72,3.17 1.43,4.65l35.01,0.05l-0.02,35.46l-36.97,0.28c-0.61,1.1 -0.89,2.26 -1.44,3.37c-15.95,32.26 -60.93,34.96 -80.15,3.76c-1.36,-2.21 -2.24,-5.09 -3.72,-7.03l-193.91,0.19c-0.75,0.94 -0.87,2.1 -1.38,3.17c-15.29,31.77 -61.39,34.73 -80.43,3.61c-0.84,-1.37 -1.9,-2.95 -2.4,-4.48c-0.35,-1.07 -0.4,-2.63 -1.65,-2.55c-8.08,0.5 -16.32,0.18 -24.42,0.2l-8,0.05c-12.1,0.06 -23.43,-8.97 -25.87,-20.99l-0.1,-0.48c-0.54,-2.77 -0.27,-5.68 -0.26,-8.49l0.05,-86.51c-0.01,-3.15 -0.7,-7.48 0.18,-10.46l0.13,-0.42c2.13,-7.04 5.7,-13.9 8.36,-20.78l28.35,-72.15c4.19,-10.93 8.33,-19.88 21.42,-21.74l100.43,0.07l-0.07,147.66l-116.28,-0.76l-0.09,58.95l11.87,0.09c8.67,-33.49 45.86,-50.75 74.76,-29.88c10.41,7.53 17.15,17.17 19.19,29.77l187.95,0c0.64,-1.21 0.67,-2.96 1.1,-4.31c2.27,-7.15 11.3,-21.44 19.17,-23.11l-183.66,-0.2l0.2,-35.7l155.93,0.03zm-256.16,-104.95c-3.84,7.61 -6.71,15.77 -9.82,23.67l-19.51,50.25c-0.49,1.31 -0.64,2.81 -1.46,3.95l49.7,-0.09l16.53,-0.01c10.56,-0.02 14.33,-0.46 14.34,-11.53l0.01,-46.37c-0.14,-10.43 -7.39,-18.47 -17.71,-19.63c-4.14,-0.46 -8.46,-0.23 -12.62,-0.24l-19.46,0z" fill="#2033c9" id="svg_1"/>
  <path d="m486.85,233.25l-287.54,-0.1c-0.44,-0.69 -0.15,-32.62 -0.15,-36.43l287.64,0.17l0.17,32.23c0.05,1.38 0.24,2.79 -0.12,4.13z" fill="#488ff9" id="svg_2" transform="matrix(1 0 0 1 0 0)"/>
 </g>
</svg>